<svg width="24" height="24" viewBox="0 0 24 24" fill="none" xmlns="http://www.w3.org/2000/svg">
<path d="M22.5325 12.2475C22.5325 11.5234 22.4683 10.8359 22.3583 10.1667H12V14.3009H17.9308C17.665 15.6575 16.8858 16.8034 15.7308 17.5825V20.3325H19.2692C21.3408 18.4167 22.5325 15.5934 22.5325 12.2475Z" fill="#4285F4"/>
<path d="M12.0011 23C14.9711 23 17.4553 22.01 19.2703 20.3325L15.7319 17.5825C14.7419 18.2425 13.4861 18.6458 12.0011 18.6458C9.13193 18.6458 6.70276 16.7116 5.83193 14.0991H2.18359V16.9316C3.98943 20.525 7.70193 23 12.0011 23Z" fill="#34A853"/>
<path d="M5.83083 14.0992C5.60167 13.4392 5.4825 12.7334 5.4825 12C5.4825 11.2667 5.61083 10.5609 5.83083 9.90086V7.06836H2.1825C1.43083 8.55336 1 10.2217 1 12C1 13.7784 1.43083 15.4467 2.1825 16.9317L5.83083 14.0992Z" fill="#FBBC05"/>
<path d="M12.0011 5.35417C13.6236 5.35417 15.0719 5.91334 16.2178 7.00417L19.3528 3.86917C17.4553 2.09083 14.9711 1 12.0011 1C7.70193 1 3.98943 3.475 2.18359 7.06834L5.83193 9.90084C6.70276 7.28834 9.13193 5.35417 12.0011 5.35417Z" fill="#EA4335"/>
</svg>
